<?xml version="1.0" standalone="no"?>
<!DOCTYPE svg PUBLIC "-//W3C//DTD SVG 20010904//EN"
 "http://www.w3.org/TR/2001/REC-SVG-20010904/DTD/svg10.dtd">
<svg version="1.0" xmlns="http://www.w3.org/2000/svg"
 width="575.000000pt" height="575.000000pt" viewBox="0 0 575.000000 575.000000"
 preserveAspectRatio="xMidYMid meet">
<metadata>
Created by potrace 1.14, written by Peter Selinger 2001-2017
</metadata>
<g transform="translate(0.000000,575.000000) scale(0.100000,-0.100000)"
fill="#000000" stroke="none">
<path d="M2765 5731 c-58 -21 -122 -62 -143 -92 -8 -11 -32 -62 -54 -112 -21
-51 -45 -105 -53 -122 -7 -16 -47 -109 -88 -205 -112 -261 -375 -871 -415
-960 -11 -25 -61 -142 -112 -260 -50 -118 -102 -237 -115 -265 -12 -27 -71
-162 -130 -300 -217 -505 -297 -691 -310 -720 -8 -16 -145 -334 -305 -705
-160 -371 -298 -691 -307 -710 -28 -63 -40 -91 -168 -390 -70 -162 -133 -308
-140 -325 -8 -16 -25 -55 -38 -85 -13 -30 -35 -80 -47 -110 -12 -30 -31 -73
-41 -95 -16 -35 -36 -81 -106 -244 l-14 -33 33 20 c18 11 103 60 188 110 85
49 171 99 190 111 19 11 55 32 80 46 25 14 70 40 101 58 208 121 326 189 339
198 8 5 94 55 190 110 96 56 191 111 210 122 19 11 46 27 60 34 14 8 46 26 71
41 69 41 557 326 577 337 9 6 68 39 130 75 62 36 125 71 140 79 15 8 29 18 30
23 2 4 8 8 13 8 4 0 46 22 91 49 46 27 99 58 118 68 19 11 172 100 340 198
168 98 320 186 338 197 18 10 103 59 187 108 84 49 169 98 187 108 18 11 56
33 84 49 27 17 70 41 95 55 24 14 123 72 219 128 96 56 195 114 220 128 25 13
50 29 57 36 9 8 -16 74 -103 276 -63 146 -121 279 -128 295 -8 17 -28 64 -46
105 -34 80 -55 127 -75 175 -71 163 -148 341 -355 820 -133 308 -250 578 -260
600 -10 22 -44 101 -75 175 -32 74 -66 153 -76 175 -10 22 -65 148 -121 281
-113 263 -126 282 -224 326 -67 29 -173 34 -239 9z"/>
<path d="M4500 2370 c-14 -11 -28 -20 -32 -20 -6 0 -107 -58 -158 -90 -8 -5
-28 -17 -45 -26 -16 -9 -168 -97 -337 -195 -169 -99 -322 -187 -340 -198 -18
-10 -58 -33 -88 -51 -30 -18 -71 -42 -90 -53 -44 -25 -414 -239 -418 -242 -2
-2 16 -14 40 -27 24 -14 153 -89 288 -168 135 -78 259 -150 275 -160 17 -9
116 -67 220 -127 105 -61 206 -120 225 -130 19 -11 86 -50 148 -87 62 -36 132
-77 155 -90 23 -13 98 -56 167 -96 68 -40 138 -81 155 -90 16 -9 64 -37 105
-62 41 -24 82 -47 90 -51 8 -4 29 -15 45 -26 151 -92 639 -370 643 -366 3 3
-1 17 -8 32 -7 16 -56 129 -110 253 -93 216 -131 302 -150 345 -5 11 -62 142
-126 290 -64 149 -124 288 -134 310 -10 22 -39 90 -64 150 -26 61 -54 124 -61
141 -8 16 -30 68 -50 114 -78 183 -84 197 -124 283 -17 37 -31 74 -31 80 0 7
-4 17 -9 22 -4 6 -41 87 -81 180 -40 94 -73 171 -74 172 -1 1 -12 -7 -26 -17z"/>
</g>
</svg>
